<?xml version="1.0" encoding="UTF-8"?>
<svg width="200px" height="56px" viewBox="0 0 200 56" version="1.1" xmlns="http://www.w3.org/2000/svg" xmlns:xlink="http://www.w3.org/1999/xlink">
    <title>pokemol__brand</title>
    <g id="页面-1" stroke="none" stroke-width="1" fill="none" fill-rule="evenodd">
        <g id="pokemol__brand" fill-rule="nonzero">
            <path d="M59.6107784,39.1936128 C58.9021956,39.1936128 58.5908184,38.8822355 58.5908184,38.1736527 L58.5908184,19.8103792 C58.5908184,19.1017964 58.9021956,18.7904192 59.6107784,18.7904192 L68.2794411,18.7904192 C73.4351297,18.7904192 74.9640719,21.0299401 74.9640719,24.3153693 L74.9640719,27.9441118 C74.9640719,31.2315369 73.4351297,33.4690619 68.2794411,33.4690619 L65.0199601,33.4690619 L65.0199601,38.1716567 C65.0199601,38.8802395 64.7085828,39.1916168 64,39.1916168 L59.6107784,39.1936128 Z M64.9640719,28.3712575 L67.5129741,28.3712575 C68.6187625,28.3712575 68.8443114,27.7205589 68.8443114,26.9840319 L68.8443114,25.4830339 C68.8443114,24.746507 68.6187625,24.0858283 67.5129741,24.0858283 L64.9640719,24.0858283 L64.9640719,28.3712575 Z" id="形状" fill="#000000"></path>
            <path d="M86.4071856,39.6187625 C79.3253493,39.6187625 77.5988024,37.2954092 77.5988024,33.8303393 L77.5988024,24.1796407 C77.5988024,20.7225549 79.3253493,18.3712575 86.4071856,18.3712575 C93.489022,18.3712575 95.1896208,20.7225549 95.1896208,24.1796407 L95.1896208,33.8383234 C95.1896208,37.2954092 93.489022,39.6187625 86.4071856,39.6187625 Z M86.4071856,34.1516966 C88.4750499,34.1516966 88.7884232,33.5848303 88.7884232,32.8183633 L88.7884232,25.1996008 C88.7884232,24.4630739 88.4750499,23.8962076 86.4071856,23.8962076 C84.3692615,23.8962076 84.0279441,24.4630739 84.0279441,25.1996008 L84.0279441,32.8183633 C84.0319361,33.5848303 84.3692615,34.1516966 86.4071856,34.1516966 L86.4071856,34.1516966 Z" id="形状" fill="#000000"></path>
            <path d="M99.8003992,39.1936128 C99.0918164,39.1936128 98.7804391,38.8822355 98.7804391,38.1736527 L98.7804391,19.8103792 C98.7804391,19.1017964 99.0918164,18.7904192 99.8003992,18.7904192 L104.191617,18.7904192 C104.9002,18.7904192 105.211577,19.1017964 105.211577,19.8103792 L105.211577,26.3253493 L106.345309,26.3253493 L109.261477,19.7265469 C109.54491,19.0459082 109.942116,18.7904192 110.678643,18.7904192 L115.041916,18.7904192 C115.692615,18.7904192 115.92016,19.1317365 115.664671,19.7265469 L112.774451,26.3313373 C114.9002,26.4451098 116.259481,27.9281437 116.259481,30.1856287 L116.259481,38.1696607 C116.259481,38.8782435 115.948104,39.1896208 115.239521,39.1896208 L110.882236,39.1896208 C110.175649,39.1896208 109.864271,38.8782435 109.864271,38.1696607 L109.864271,32.6487026 C109.864271,32.0259481 109.550898,31.6866267 108.956088,31.6866267 L105.217565,31.6866267 L105.217565,38.1736527 C105.217565,38.8822355 104.906188,39.1936128 104.197605,39.1936128 L99.8003992,39.1936128 Z" id="路径" fill="#000000"></path>
            <path d="M120.938124,39.1936128 C120.231537,39.1936128 119.92016,38.8822355 119.92016,38.1736527 L119.92016,19.8103792 C119.92016,19.1017964 120.231537,18.7904192 120.938124,18.7904192 L134.083832,18.7904192 C134.790419,18.7904192 135.103792,19.1017964 135.103792,19.8103792 L135.103792,23.1257485 C135.103792,23.8323353 134.790419,24.1457086 134.083832,24.1457086 L126.265469,24.1457086 L126.265469,26.3253493 L131.788423,26.3253493 C132.497006,26.3253493 132.808383,26.6387226 132.808383,27.3453094 L132.808383,30.3772455 C132.808383,31.0858283 132.497006,31.3972056 131.788423,31.3972056 L126.265469,31.3972056 L126.265469,33.8323353 L134.083832,33.8323353 C134.790419,33.8323353 135.103792,34.1457086 135.103792,34.8522954 L135.103792,38.1676647 C135.103792,38.8762475 134.790419,39.1876248 134.083832,39.1876248 L120.938124,39.1936128 Z M123.091816,17.8622754 C122.441118,17.9481038 122.129741,17.5788423 122.129741,16.9281437 L122.129741,14.2075848 C122.129741,13.499002 122.441118,13.2734531 123.147705,13.1876248 L133.035928,11.9760479 C133.686627,11.8902196 133.998004,12.259481 133.998004,12.9101796 L133.998004,15.6307385 C133.998004,16.3393214 133.686627,16.5648703 132.978044,16.6506986 L123.091816,17.8622754 Z" id="形状" fill="#000000"></path>
            <path d="M139.46507,39.1936128 C138.756487,39.1936128 138.44511,38.8822355 138.44511,38.1736527 L138.44511,19.8103792 C138.44511,19.1017964 138.756487,18.7904192 139.46507,18.7904192 L144.025948,18.7904192 C144.62475,18.7904192 144.988024,19.0179641 145.329341,19.6407186 L147.878244,24.257485 C148.077844,24.5988024 148.161677,24.740519 148.389222,24.740519 L148.642715,24.740519 C148.870259,24.740519 148.954092,24.5988024 149.153693,24.257485 L151.674651,19.6407186 C152.013972,19.0179641 152.383234,18.7904192 152.978044,18.7904192 L157.568862,18.7904192 C158.277445,18.7904192 158.588822,19.1017964 158.588822,19.8103792 L158.588822,38.1736527 C158.588822,38.8822355 158.277445,39.1936128 157.568862,39.1936128 L153.203593,39.1936128 C152.467066,39.1936128 152.183633,38.8822355 152.183633,38.1736527 L152.183633,28.1936128 L150.512974,31.2814371 C150.173653,31.9321357 149.748503,32.1876248 149.011976,32.1876248 L147.878244,32.1876248 C147.141717,32.1876248 146.716567,31.9321357 146.377246,31.2814371 L144.710579,28.2015968 L144.710579,38.1816367 C144.710579,38.8902196 144.399202,39.2015968 143.690619,39.2015968 L139.46507,39.1936128 Z" id="路径" fill="#000000"></path>
            <path d="M170.994012,39.6187625 C163.912176,39.6187625 162.183633,37.2954092 162.183633,33.8303393 L162.183633,24.1796407 C162.183633,20.7225549 163.912176,18.3712575 170.994012,18.3712575 C178.075848,18.3712575 179.776447,20.7225549 179.776447,24.1796407 L179.776447,33.8383234 C179.776447,37.2954092 178.075848,39.6187625 170.994012,39.6187625 Z M170.994012,34.1516966 C173.061876,34.1516966 173.373253,33.5848303 173.373253,32.8183633 L173.373253,25.1996008 C173.373253,24.4630739 173.061876,23.8962076 170.994012,23.8962076 C168.926148,23.8962076 168.61477,24.4630739 168.61477,25.1996008 L168.61477,32.8183633 C168.61477,33.5848303 168.954092,34.1516966 170.994012,34.1516966 L170.994012,34.1516966 Z" id="形状" fill="#000000"></path>
            <path d="M184.393214,39.1936128 C183.684631,39.1936128 183.373253,38.8822355 183.373253,38.1736527 L183.373253,19.8103792 C183.373253,19.1017964 183.684631,18.7904192 184.393214,18.7904192 L188.784431,18.7904192 C189.491018,18.7904192 189.804391,19.1017964 189.804391,19.8103792 L189.804391,33.8323353 L193.684631,33.8323353 L193.684631,29.241517 C193.684631,28.5329341 193.996008,28.2215569 194.704591,28.2215569 L198.812375,28.2215569 C199.518962,28.2215569 199.832335,28.5329341 199.832335,29.241517 L199.832335,38.1656687 C199.832335,38.8742515 199.518962,39.1856287 198.812375,39.1856287 L184.393214,39.1936128 Z" id="路径" fill="#000000"></path>
            <polygon id="路径" fill="#000000" points="1.65868263 28.7944112 4.79441118 27.1057884 1.95808383 24.9520958 5.31736527 23.7744511 2.85628743 21.2015968 6.35928144 20.5668663 4.33133733 17.6407186 7.89221557 17.5648703 6.3493014 14.3552894 9.87824351 14.8363273 8.85429142 11.4251497 12.2634731 12.4510978 11.7824351 8.92215569 14.992016 10.4650699 15.0678643 6.90618762 17.994012 8.93213573 18.6287425 5.42914172 21.2015968 7.89221557 22.3792415 4.53093812 24.5329341 7.36726547 26.2215569 4.23153693 27.9081836 7.36726547 30.0618762 4.53093812 31.241517 7.89221557 33.8123752 5.42914172 34.4471058 8.93213573 37.3752495 6.90618762 37.4510978 10.4670659 40.6606786 8.92215569 40.1776447 12.4510978 43.5888224 11.4271457 42.5648703 14.8363273 46.0938124 14.3552894 44.5489022 17.5648703 48.1097804 17.6407186 46.0818363 20.5688623 49.5868263 21.2015968 47.1237525 23.7744511 50.4830339 24.9520958 47.6467066 27.1057884 50.7824351 28.7944112 47.6467066 30.4830339 50.4830339 32.6347305 47.1237525 33.8143713 49.5868263 36.3872255 46.0818363 37.0199601 48.1097804 39.9481038 44.5489022 40.0239521 46.0918164 43.2335329 42.5648703 42.752495 43.5888224 46.1616766 40.1776447 45.1377246 40.6586826 48.6666667 37.4510978 47.1217565 37.3752495 50.6826347 34.4471058 48.6546906 33.8123752 52.1596806 31.241517 49.6966068 30.0618762 53.0578842 27.9081836 50.2215569 26.2215569 53.3552894 24.5329341 50.2215569 22.3792415 53.0578842 21.2015968 49.6966068 18.6287425 52.1596806 17.994012 48.6546906 15.0658683 50.6826347 14.99002 47.1217565 11.7824351 48.6646707 12.2634731 45.1377246 8.85229541 46.1616766 9.8762475 42.750499 6.3493014 43.2335329 7.89221557 40.0239521 4.33133733 39.9481038 6.35928144 37.0199601 2.85429142 36.3852295 5.31736527 33.8143713 1.95808383 32.6347305 4.79441118 30.4830339"></polygon>
            <path d="M26.2215569,54.9760479 L24.4251497,51.6347305 L22.1297405,54.6586826 L20.8722555,51.0758483 L18.1297405,53.7025948 L17.4530938,49.9640719 L14.3313373,52.1257485 L14.251497,48.3333333 L10.8303393,49.9780439 L11.3433134,46.2175649 L7.70658683,47.3053892 L8.79840319,43.6706587 L5.03792415,44.1836327 L6.68463074,40.7644711 L2.89221557,40.6826347 L5.0499002,37.5628743 L1.31337325,36.8862275 L3.94011976,34.1437126 L0.357285429,32.8882236 L3.37924152,30.5928144 L0.0399201597,28.7964072 L3.37924152,27 L0.357285429,24.7045908 L3.94011976,23.4471058 L1.31337325,20.7005988 L5.0499002,20.0239521 L2.88822355,16.9021956 L6.68063872,16.8223553 L5.03992016,13.4011976 L8.79840319,13.9141717 L7.70858283,10.2794411 L11.3413174,11.3772455 L10.8283433,7.61876248 L14.249501,9.26347305 L14.3293413,5.47105788 L17.4510978,7.63273453 L18.1277445,3.89620758 L20.8702595,6.52295409 L22.1277445,2.93013972 L24.4231537,5.95409182 L26.2195609,2.61277445 L28.0159681,5.95409182 L30.3093812,2.93013972 L31.5668663,6.52295409 L34.3093812,3.89620758 L34.9860279,7.63273453 L38.1077844,5.47105788 L38.1896208,9.26347305 L41.6087824,7.61876248 L41.0998004,11.3772455 L44.7345309,10.2854291 L43.6427146,13.9201597 L47.4031936,13.4071856 L45.758483,16.8263473 L49.5508982,16.9081836 L47.3892216,20.0299401 L51.1277445,20.7045908 L48.502994,23.4451098 L52.0958084,24.7005988 L49.0718563,26.996008 L52.4111776,28.7924152 L49.0718563,30.5888224 L52.0958084,32.8882236 L48.502994,34.1437126 L51.1297405,36.8862275 L47.3932136,37.5628743 L49.5548902,40.6866267 L45.762475,40.7664671 L47.4071856,44.1876248 L43.6467066,43.6746507 L44.738523,47.3073852 L41.1037924,46.2155689 L41.6167665,49.9760479 L38.1956088,48.3313373 L38.1157685,52.1237525 L34.99002,49.9660679 L34.3133733,53.7025948 L31.5708583,51.0758483 L30.3133733,54.6586826 L28.0199601,51.6347305 L26.2215569,54.9760479 Z M24.6427146,48.8063872 L26.2215569,51.7365269 L27.7984032,48.8063872 L29.8103792,51.4550898 L30.9101796,48.3173653 L33.3053892,50.6167665 L33.9041916,47.3453094 L36.6367265,49.239521 L36.7085828,45.9141717 L39.7025948,47.3552894 L39.251497,44.0598802 L42.4451098,45.0159681 L41.4870259,41.8223553 L44.7844311,42.2714571 L43.3433134,39.2774451 L46.6666667,39.2075848 L44.7744511,36.4730539 L48.0459082,35.8742515 L45.746507,33.4790419 L48.8842315,32.3772455 L46.2355289,30.3672655 L49.1656687,28.7884232 L46.2355289,27.2095808 L48.8842315,25.1976048 L45.746507,24.0978044 L48.0459082,21.7025948 L44.7744511,21.1037924 L46.6686627,18.3692615 L43.3433134,18.2994012 L44.7844311,15.3053892 L41.4850299,15.7684631 L42.4431138,12.5748503 L39.249501,13.5309381 L39.6986028,10.2355289 L36.7045908,11.6766467 L36.6347305,8.35129741 L33.9001996,10.245509 L33.3013972,6.97205589 L30.9061876,9.27145709 L29.8043912,6.13373253 L27.7984032,8.78243513 L26.2215569,5.85229541 L24.6427146,8.78243513 L22.6307385,6.13173653 L21.5309381,9.26946108 L19.1357285,6.97005988 L18.5369261,10.241517 L15.8043912,8.3493014 L15.7345309,11.6746507 L12.740519,10.2315369 L13.1896208,13.5289421 L9.99600798,12.5708583 L10.9540918,15.7644711 L7.65668663,15.3153693 L9.0998004,18.3093812 L5.7744511,18.3792415 L7.66666667,21.1117764 L4.39520958,21.7105788 L6.69461078,24.1057884 L3.55688623,25.2055888 L6.20758483,27.2175649 L3.2754491,28.7964072 L6.20758483,30.3752495 L3.55888224,32.3832335 L6.69660679,33.4850299 L4.39121756,35.8842315 L7.66267465,36.4830339 L5.77045908,39.2175649 L9.09580838,39.2874251 L7.65269461,42.2814371 L10.9500998,41.8323353 L9.99201597,45.0259481 L13.1856287,44.0698603 L12.7345309,47.3652695 L15.7285429,45.9241517 L15.8003992,49.249501 L18.5329341,47.3552894 L19.1317365,50.6267465 L21.5269461,48.3273453 L22.6267465,51.4650699 L24.6427146,48.8063872 Z" id="形状" fill="#000000"></path>
            <circle id="椭圆形" fill="#E81858" cx="26.2215569" cy="28.7944112" r="22.003992"></circle>
            <path d="M26.1477046,45.6806387 C30.497006,45.6806387 34.3313373,44.4011976 37.9241517,41.8423154 C43.0459082,38.1856287 42.5289421,32.6327345 37.9241517,34.6786427 C36.3552894,35.3752495 32.9341317,38.5169661 26.1477046,38.5169661 L26.2155689,38.5169661 C19.4291417,38.5169661 16.0139721,35.3752495 14.4391218,34.6786427 C9.83433134,32.6327345 9.31936128,38.1856287 14.4391218,41.8423154 C18.0219561,44.4011976 21.8602794,45.6806387 26.2155689,45.6806387" id="路径" fill="#AA174C"></path>
            <path d="M26.2215569,46.1916168 L26.1477046,46.1916168 C21.756487,46.1796407 17.8343313,44.8922156 14.1477046,42.259481 C11.49501,40.3632735 9.39520958,36.9840319 10.6287425,34.8263473 C11.3133733,33.6287425 12.8243513,33.3952096 14.6526946,34.2115768 C15.0812929,34.4199041 15.4965907,34.6545506 15.8962076,34.9141717 C17.7804391,36.0678643 20.9301397,37.996008 26.1816367,38.003992 C31.4331337,38.011976 34.5808383,36.0678643 36.4650699,34.9141717 C36.8698549,34.653972 37.2905013,34.4193166 37.7245509,34.2115768 C39.5588822,33.3952096 41.0638723,33.6247505 41.748503,34.8263473 C42.9820359,36.9840319 40.8822355,40.3632735 38.2295409,42.259481 C34.5429142,44.8922156 30.6167665,46.1796407 26.2315369,46.1916168 L26.2215569,46.1916168 Z M12.6786427,34.748503 C12.1437126,34.748503 11.744511,34.9481038 11.5229541,35.3333333 C10.8782435,36.4610778 11.6407186,39.2055888 14.748503,41.4271457 C18.2654691,43.9381238 22.005988,45.1616766 26.1876248,45.169699 C30.3692615,45.1776447 34.1077844,43.9381238 37.6247505,41.4271457 C40.7325349,39.2055888 41.49501,36.4610778 40.8502994,35.3333333 C40.4510978,34.6267465 39.4530938,34.5588822 38.1297405,35.1457086 C37.7437946,35.3387076 37.3686541,35.5525976 37.005988,35.7864271 C35.0339321,36.994012 31.740519,39.011976 26.2275449,39.0279441 L26.1477046,39.0279441 C20.6267465,39.011976 17.3333333,36.994012 15.3692615,35.7864271 C15.0068534,35.5521728 14.6316891,35.3382692 14.245509,35.1457086 C13.7559075,34.907471 13.222611,34.7722786 12.6786427,34.748503 Z" id="形状" fill="#000000"></path>
            <path d="M26.2215569,51.5648703 C13.6457796,51.5648703 3.4510978,41.3701885 3.4510978,28.7944112 C3.4510978,16.2186339 13.6457796,6.0239521 26.2215569,6.0239521 C38.7973342,6.0239521 48.992016,16.2186339 48.992016,28.7944112 C48.976619,41.3638053 38.790951,51.5494733 26.2215569,51.5648703 Z M26.2215569,7.55888224 C14.4934981,7.55888224 4.98602794,17.0663524 4.98602794,28.7944112 C4.98602794,40.52247 14.4934981,50.0299401 26.2215569,50.0299401 C37.9496157,50.0299401 47.4570858,40.52247 47.4570858,28.7944112 C47.4438859,17.0718243 37.9441438,7.57208212 26.2215569,7.55888224 Z" id="形状" fill="#000000"></path>
            <circle id="椭圆形" fill="#FFFFFF" cx="17.6407186" cy="25.0778443" r="6.01996008"></circle>
            <path d="M17.6407186,31.6087824 C14.9982117,31.6087824 12.6159407,30.016868 11.6048837,27.5754327 C10.5938267,25.1339975 11.1531227,22.3239095 13.0219427,20.4556605 C14.8907627,18.5874116 17.7010214,18.0289742 20.1421476,19.0407772 C22.5832737,20.0525803 24.1744601,22.4353376 24.173653,25.0778443 C24.1692514,28.6837364 21.2466118,31.605483 17.6407186,31.6087824 L17.6407186,31.6087824 Z M17.6407186,19.5688623 C14.5981918,19.5688623 12.1317365,22.0353175 12.1317365,25.0778443 C12.1317365,28.1203711 14.5981918,30.5868263 17.6407186,30.5868263 C20.6832453,30.5868263 23.149701,28.1203711 23.149701,25.0778443 C23.1508042,22.0335681 20.6849932,19.5641834 17.6407186,19.5608782 L17.6407186,19.5688623 Z" id="形状" fill="#000000"></path>
            <circle id="椭圆形" fill="#FFFFFF" cx="34.5449102" cy="25.0778443" r="6.01996008"></circle>
            <path d="M34.5449102,31.6087824 C31.9024034,31.6087824 29.5201323,30.016868 28.5090753,27.5754327 C27.4980183,25.1339975 28.0573144,22.3239095 29.9261343,20.4556605 C31.7949543,18.5874116 34.605213,18.0289742 37.0463392,19.0407772 C39.4874654,20.0525803 41.0786517,22.4353376 41.0778446,25.0778443 C41.073443,28.6837364 38.1508034,31.605483 34.5449102,31.6087824 Z M34.5449102,19.5688623 C31.5023834,19.5688623 29.0359281,22.0353175 29.0359281,25.0778443 C29.0359281,28.1203711 31.5023834,30.5868263 34.5449102,30.5868263 C37.5874369,30.5868263 40.0538926,28.1203711 40.0538926,25.0778443 C40.0549958,22.0335681 37.5891848,19.5641834 34.5449102,19.5608782 L34.5449102,19.5688623 Z" id="形状" fill="#000000"></path>
            <circle id="椭圆形" fill="#000000" cx="17.6407186" cy="25.996008" r="3.58283433"></circle>
            <circle id="椭圆形" fill="#000000" cx="34.5449102" cy="25.996008" r="3.58283433"></circle>
            <path d="M26.2215569,38.5229541 L24.4251497,42.497006 L23.1257485,38.7784431 L20.8782435,41.8483034 L19.760479,37.748503 L14.7005988,45.1696607 L15.7105788,35.3892216 C15.7105788,35.3892216 20.4610778,38.5229541 26.2215569,38.5229541 Z" id="路径" fill="#FFFFFF"></path>
            <path d="M14.5249501,45.4311377 L15.2874251,34.506986 L15.992016,34.9700599 C17.1912746,35.7031188 18.4619443,36.3123715 19.7844311,36.7884232 L20.0439122,36.8822355 C21.0838376,37.2521176 22.1518151,37.5378016 23.237525,37.7365269 L23.2734531,37.6846307 L23.2954092,37.746507 C24.246978,37.9149415 25.2112882,38.0010883 26.1776447,38.003992 L26.996008,38.003992 L24.3512974,43.8702595 L22.9540918,39.8602794 L20.6546906,43 L19.5608782,38.9520958 L14.5249501,45.4311377 Z M16.1377246,36.249501 L15.6287425,42.758483 L19.1936128,37.6686627 C18.1414162,37.2715294 17.1200055,36.7971839 16.1377246,36.249501 L16.1377246,36.249501 Z M23.6986028,38.8443114 L24.497006,41.1077844 L25.4431138,39.007984 C24.8423154,38.9840319 24.261477,38.9221557 23.6986028,38.8483034 L23.6986028,38.8443114 Z M20.3812375,38.0778443 L21.0958084,40.6826347 L22.5828343,38.6506986 C21.8392423,38.50094 21.1043017,38.3110414 20.3812375,38.0818363 L20.3812375,38.0778443 Z" id="形状" fill="#000000"></path>
            <path d="M26.2215569,45.6806387 L24.4251497,42.4870259 L22.5209581,45.4211577 L20.8143713,41.8383234 L18.7145709,44.2015968 C18.7145709,44.2015968 21.2035928,45.6806387 26.2215569,45.6806387 Z" id="路径" fill="#FFFFFF"></path>
            <path d="M22.1556886,45.8423154 C19.760479,45.3972056 18.5309381,44.6886228 18.4570858,44.6447106 L17.9241517,44.3273453 L20.9580838,40.9181637 L22.6047904,44.3712575 L24.4710579,41.49501 L27.1057884,46.1836327 L26.2315369,46.1836327 C25.0847072,46.1872592 23.9391864,46.1058651 22.8043912,45.9401198 L22.1556886,45.8423154 Z M23.4131737,44.998004 C23.996008,45.0718563 24.6387226,45.1277445 25.3373253,45.1536926 L24.3972056,43.4790419 L23.4131737,44.998004 Z M19.5608782,44.0359281 C20.2246005,44.3058205 20.9095889,44.5201298 21.6087824,44.6766467 L20.6946108,42.758483 L19.5608782,44.0359281 Z" id="形状" fill="#000000"></path>
            <path d="M26.0898204,38.5229541 L27.8862275,42.497006 L29.1856287,38.7784431 L31.4331337,41.8483034 L32.5588822,37.754491 L37.6147705,45.1756487 L36.6047904,35.3952096 C36.6047904,35.3952096 31.8502994,38.5229541 26.0898204,38.5229541 Z" id="路径" fill="#FFFFFF"></path>
            <path d="M37.6087824,45.4311377 L32.752495,38.9520958 L31.6407186,43 L29.3413174,39.8602794 L27.9441118,43.8702595 L25.2974052,38.003992 L26.0958084,38.003992 C27.069976,37.998356 28.0420123,37.9122346 29.001996,37.746507 L29.0618762,37.7365269 C30.1509643,37.5383229 31.2222994,37.2526336 32.2654691,36.8822355 L32.5229541,36.7884232 C33.8456655,36.3129085 35.1163887,35.7036302 36.3153693,34.9700599 L37.0199601,34.506986 L37.6087824,45.4311377 Z M33.1177645,37.6686627 L36.7265469,42.758483 L36.1796407,36.249501 C35.1950243,36.796659 34.1716624,37.2709812 33.1177645,37.6686627 L33.1177645,37.6686627 Z M26.8742515,39.011976 L27.8203593,41.1177645 L28.6187625,38.8542914 C28.0479042,38.9221557 27.4670659,38.9840319 26.8742515,39.011976 L26.8742515,39.011976 Z M29.7285429,38.6546906 L31.2155689,40.6866267 L31.9361277,38.0818363 C31.2111006,38.312339 30.4741687,38.5035681 29.7285429,38.6546906 L29.7285429,38.6546906 Z" id="形状" fill="#000000"></path>
            <path d="M26.0898204,45.6806387 L27.8862275,42.4870259 L29.7924152,45.4211577 L31.497006,41.8383234 L33.5968064,44.2015968 C33.5968064,44.2015968 31.1057884,45.6806387 26.0898204,45.6806387 Z" id="路径" fill="#FFFFFF"></path>
            <path d="M29.5149701,45.9481038 C28.3808459,46.1138601 27.2359877,46.1952544 26.0898204,46.1916168 L25.2155689,46.1916168 L27.8483034,41.502994 L29.7165669,44.3792415 L31.3612774,40.9261477 L34.3852295,44.3193613 L33.8522954,44.6367265 C33.7804391,44.6806387 32.5568862,45.3892216 30.1536926,45.8343313 L29.5149701,45.9481038 Z M27.9181637,43.4790419 L26.9780439,45.1536926 C27.6786427,45.1277445 28.3193613,45.0718563 28.9041916,44.998004 L27.9181637,43.4790419 Z M31.6267465,42.758483 L30.7145709,44.6766467 C31.4135994,44.5195144 32.0985377,44.3052209 32.762475,44.0359281 L31.6267465,42.758483 Z" id="形状" fill="#000000"></path>
            <path d="M21.8722555,33.6546906 C22.6902287,33.9662143 23.5543058,34.1395693 24.4291417,34.1676647" id="路径" fill="#000000"></path>
            <path d="M24.4291417,34.9301397 C23.4565578,34.9024471 22.4956232,34.7108001 21.5868263,34.3632735 C21.1921798,34.2061865 20.9995996,33.758918 21.1566866,33.3642715 C21.3137736,32.9696249 21.761042,32.7770448 22.1556886,32.9341317 C22.8837609,33.2085768 23.6515749,33.3629485 24.4291417,33.3912176 C24.712669,33.3767536 24.9810737,33.519786 25.1271782,33.7632001 C25.2732827,34.0066141 25.2732827,34.3107511 25.1271782,34.5541652 C24.9810737,34.7975793 24.712669,34.9406117 24.4291417,34.9261477 L24.4291417,34.9301397 Z" id="路径" fill="#000000"></path>
            <path d="M30.0578842,33.6546906 C29.2398287,33.9659292 28.3757998,34.1392745 27.500998,34.1676647" id="路径" fill="#000000"></path>
            <path d="M27.500998,34.9301397 C27.2174707,34.9446037 26.9490661,34.8015713 26.8029615,34.5581572 C26.656857,34.3147431 26.656857,34.0106062 26.8029615,33.7671921 C26.9490661,33.523778 27.2174707,33.3807456 27.500998,33.3952096 C28.2787106,33.365031 29.0464308,33.20933 29.7744511,32.9341317 C30.1679953,32.7770448 30.6143701,32.9687312 30.7714571,33.3622755 C30.928544,33.7558197 30.7368576,34.2021945 30.3433134,34.3592814 C29.434679,34.707915 28.4737812,34.9009043 27.500998,34.9301397 L27.500998,34.9301397 Z" id="路径" fill="#000000"></path>
            <path d="M8.31137725,31.7365277 C8.19340643,31.7367334 8.07905651,31.6957933 7.98802395,31.6207585 C7.76906936,31.4419511 7.73604141,31.1197054 7.91417166,30.9001996 C9.93812375,28.4271457 13.3832335,29.1696607 14.9221557,29.9021956 C15.1768019,30.0240069 15.2844859,30.3291861 15.1626746,30.5838323 C15.0408633,30.8384786 14.7356842,30.9461626 14.4810379,30.8243513 C13.7831453,30.519322 13.0427233,30.3227736 12.2854291,30.241517 C10.744511,30.0858283 9.53692615,30.5229541 8.70259481,31.5429142 C8.60807039,31.6631603 8.46431206,31.734306 8.31137725,31.7365277 L8.31137725,31.7365277 Z" id="路径" fill="#000000"></path>
            <path d="M44,31.6087824 C43.8454642,31.6095651 43.6988107,31.5406379 43.6007984,31.4211577 C41.5768463,28.9481038 37.8662675,30.6866267 37.8283433,30.7045908 C37.6615332,30.7971259 37.4571526,30.789457 37.2977461,30.6846813 C37.1383397,30.5799057 37.0502376,30.3953298 37.0690223,30.2054996 C37.0878069,30.0156694 37.2103756,29.8519405 37.3872255,29.7804391 C38.9241517,29.0419162 42.3772455,28.3013972 44.3932136,30.7784431 C44.5198041,30.9317291 44.5459979,31.1445225 44.4603606,31.3239327 C44.3747233,31.5033429 44.1928025,31.6167976 43.994012,31.6147705 L44,31.6087824 Z" id="路径" fill="#000000"></path>
            <path d="M30.011976,10.5528942 C29.8413527,9.77481006 30.046092,8.96176573 30.5648703,8.35728543 L36.9520958,0.912175649 C37.204911,0.634545888 37.6115004,0.558889329 37.9472572,0.726999925 C38.283014,0.895110522 38.4660322,1.26597865 38.3952096,1.63473054 L38.5229541,11.6586826 C38.539111,12.879681 37.6283134,13.9146784 36.4151697,14.0538922 C33.7744511,14.3552894 30.6986028,13.6886228 30.011976,10.5528942 Z" id="路径" fill="#E81858"></path>
            <path d="M35.249501,14.6367595 C32.1756487,14.6367595 30.0598802,13.2015968 29.510978,10.6626747 L29.510978,10.6626747 C29.3088798,9.72663004 29.5554604,8.74990516 30.1776447,8.02195609 L36.5648703,0.576846307 C36.9614278,0.13030444 37.6043531,-0.00243291376 38.1453327,0.250546487 C38.6863124,0.503525888 38.9966368,1.08203335 38.9081836,1.67265469 L39.0399202,11.6526946 C39.0686691,13.1410397 37.9585165,14.4060773 36.4790419,14.5708583 C36.0707452,14.6157411 35.660256,14.6377316 35.249501,14.6367595 L35.249501,14.6367595 Z M37.5668663,1.14371257 C37.4766256,1.14400474 37.3911344,1.18419288 37.3333333,1.25349301 L30.9461078,8.68862275 C30.5323319,9.17206721 30.3683942,9.82117171 30.502994,10.4431138 L30.502994,10.4431138 C30.744511,11.5489022 31.8023952,14.0618762 36.3552894,13.5469062 C37.3093571,13.4409553 38.0261447,12.6264633 38.00998,11.6666667 L37.8862275,1.59680639 L37.8962076,1.54491018 C37.929552,1.40085203 37.8569825,1.25321073 37.7225549,1.19161677 C37.6749821,1.16400495 37.6217326,1.14762046 37.5668663,1.14371257 L37.5668663,1.14371257 Z" id="形状" fill="#000000"></path>
            <path d="M22.3233533,10.5528942 C22.4921564,9.77451651 22.2868116,8.96200118 21.7684631,8.35728543 L15.3812375,0.912175649 C15.1284223,0.634545888 14.7218329,0.558889329 14.3860761,0.726999925 C14.0503193,0.895110522 13.8673011,1.26597865 13.9381238,1.63473054 L13.8063872,11.6606786 C13.7902303,12.8816771 14.7010279,13.9166744 15.9141717,14.0558882 C18.5628743,14.3552894 21.6347305,13.6886228 22.3233533,10.5528942 Z" id="路径" fill="#E81858"></path>
            <path d="M17.0858283,14.6367265 C16.674296,14.6358012 16.2631389,14.6118115 15.8542914,14.5648703 C14.3771421,14.4002912 13.267793,13.1387632 13.2934132,11.6526946 L13.4231537,1.67265469 C13.3274931,1.07911961 13.6360526,0.493895979 14.1798357,0.237508031 C14.7236188,-0.0188799162 15.3714288,0.115425677 15.7684631,0.566866267 L22.1556886,8.02195609 C22.777873,8.74990516 23.0244536,9.72663004 22.8223553,10.6626747 L22.8223553,10.6626747 C22.2654691,13.2015968 20.1596806,14.6367265 17.0858283,14.6367265 Z M14.7704591,1.14171465 C14.7147826,1.14187836 14.6599809,1.1555788 14.6107784,1.18163673 C14.4749913,1.24194654 14.4012504,1.39026639 14.4351297,1.53493014 L14.4351297,1.58682635 L14.3033932,11.6666667 C14.2877296,12.6299004 15.0100299,13.4457359 15.9680639,13.5469062 C20.5249501,14.0618762 21.5788423,11.5508982 21.8203593,10.4431138 L21.8203593,10.4431138 C21.954959,9.82117171 21.7910214,9.17206721 21.3772455,8.68862275 L14.99002,1.24351297 C14.9355522,1.17869751 14.8551213,1.14140682 14.7704591,1.14171465 Z" id="形状" fill="#000000"></path>
        </g>
    </g>
</svg>